# xmcd
#
# Track frame offsets:
#	150
#	17748
#	48566
#	72932
#	77251
#	96804
#
# Disc length: 1516 seconds
#
# Revision: 1
# Processed by: cddbd v1.5.2PL0 Copyright (c) Steve Scherf et al.
# Submitted via: audiograbber 1.83.01
#
DISCID=4005ea06
DTITLE=Grateful Dead - 70-06-24A Capitol Theatre, Port Chester NY
DYEAR=1900
DGENRE=
TTITLE0=NRPS Truck Driving Man
TTITLE1=NRPS Last Lonely Eagle
TTITLE2=NRPS Honky Tonk Woman
TTITLE3=NRPS Intros
TTITLE4=NRPS Six Days On The Road
TTITLE5=NRPS Superman
EXTD=
EXTT0=
EXTT1=
EXTT2=
EXTT3=
EXTT4=
EXTT5=
PLAYORDER=
